PathFileType	4	(X/Y/Z)	s04c0102.trc
DataRate	CameraRate	NumFrames	NumMarkers	Units	OrigDataRate	OrigDataStartFrame	OrigNumFrames
200	200	5	50	mm	200	1000	2000
Frame#	Time	racr			lacr			c7			jug			rlel			rdr			llel			ldr			s2			lic			ric			lasi			rasi			rpsi			lpsi			rgt			lgt			rth1			rth2			rth3			rth4			rlfc			rmfc			rsh1			rsh2			rsh3			rsh4			rlmal			rmmal			rcal			rtoe			rmt5			lth1			lth2			lth4			lth3			llfc			lmfc			lsh1			lsh2			lsh3			lsh4			llmal			lmmal			lcal			ltoe			lmt5			SBIKE			LBIKE			RBIKE			
		X1	Y1	Z1	X2	Y2	Z2	X3	Y3	Z3	X4	Y4	Z4	X5	Y5	Z5	X6	Y6	Z6	X7	Y7	Z7	X8	Y8	Z8	X9	Y9	Z9	X10	Y10	Z10	X11	Y11	Z11	X12	Y12	Z12	X13	Y13	Z13	X14	Y14	Z14	X15	Y15	Z15	X16	Y16	Z16	X17	Y17	Z17	X18	Y18	Z18	X19	Y19	Z19	X20	Y20	Z20	X21	Y21	Z21	X22	Y22	Z22	X23	Y23	Z23	X24	Y24	Z24	X25	Y25	Z25	X26	Y26	Z26	X27	Y27	Z27	X28	Y28	Z28	X29	Y29	Z29	X30	Y30	Z30	X31	Y31	Z31	X32	Y32	Z32	X33	Y33	Z33	X34	Y34	Z34	X35	Y35	Z35	X36	Y36	Z36	X37	Y37	Z37	X38	Y38	Z38	X39	Y39	Z39	X40	Y40	Z40	X41	Y41	Z41	X42	Y42	Z42	X43	Y43	Z43	X44	Y44	Z44	X45	Y45	Z45	X46	Y46	Z46	X47	Y47	Z47	X48	Y48	Z48	X49	Y49	Z49	X50	Y50	Z50	
1000	5.0000	492.402017	1338.633162	-126.963244	505.111713	1331.098194	-393.927083	480.526785	1398.248185	-266.902056	419.583995	1251.073037	-274.796786	440.115861	1049.485391	5.254814	682.298414	921.120742	-105.273733	462.475775	1084.806754	-556.268053	683.377747	910.534289	-492.515416	-74.407194	1168.262661	-304.184228	90.305638	1179.099759	-453.583419	61.416944	1193.109192	-133.587665	128.918280	1133.213342	-404.924936	92.476286	1167.994874	-126.783692	-55.358873	1217.654228	-262.528969	-45.539592	1215.803743	-339.356715	30.023724	1135.851065	-113.308042	52.965661	1077.231176	-477.426865	167.242131	1040.764915	-107.744343	250.675346	1014.156275	-122.013049	310.234023	953.987435	-129.076116	266.870055	1045.161024	-136.798652	416.871757	863.316727	-156.281681	395.790543	838.241467	-267.315066	368.438127	750.967517	-127.389597	359.929811	660.087940	-136.960014	306.984972	592.243207	-138.990834	391.049161	651.934452	-159.972913	262.966307	447.939249	-136.733298	281.148971	454.217458	-222.439778	193.786797	407.662025	-172.912183	493.384983	420.256050	-163.667580	429.693145	390.158886	-107.269235	112.109095	1003.969775	-485.828785	185.466374	957.516435	-486.750295	210.622751	980.376810	-474.795973	227.192049	879.039306	-492.978685	302.855017	740.920626	-473.549203	328.483703	712.718950	-365.035354	243.581551	634.501156	-491.670646	206.767629	560.401618	-464.576312	134.576523	508.786123	-459.142935	230.304196	547.228210	-435.663901	37.617220	399.553157	-446.742165	37.477083	402.360057	-358.114747	-38.133352	424.579678	-401.914365	193.707310	226.560462	-415.516641	113.632722	243.374636	-473.497603	-185.379299	933.626950	-287.615260	-17.445519	78.962534	-485.536878	-17.480402	79.203997	-84.870720	
1001	5.0050	492.297392	1338.707979	-127.104813	503.913474	1330.805309	-393.817498	479.756106	1398.278188	-267.072913	418.867904	1251.053699	-274.650644	441.947609	1049.601553	5.945011	683.188450	920.695061	-105.519291	462.386987	1084.194321	-555.255675	683.576390	910.543820	-492.477190	-74.350583	1164.981083	-304.096880	90.047553	1177.571529	-452.845009	61.497273	1190.340302	-132.309835	129.098738	1132.062731	-404.369869	92.922057	1166.587251	-126.317080	-55.518175	1213.955137	-261.450063	-46.089425	1212.558805	-338.723996	30.281684	1130.822595	-112.869363	53.766323	1075.425926	-476.935528	166.501045	1034.922928	-106.802309	249.401919	1007.080438	-121.321480	307.988202	946.003747	-128.685733	266.225290	1037.953375	-135.383109	414.084263	855.608579	-156.109570	392.620921	830.318343	-267.021812	366.661306	741.950843	-127.113799	359.610961	650.976898	-136.703525	307.440743	582.382925	-138.488464	389.609540	642.815828	-159.483031	265.800101	436.823821	-135.990841	283.955930	443.717928	-221.920674	196.909642	396.342729	-172.067401	496.522535	409.909909	-163.677764	433.374927	379.692581	-107.355685	113.535945	1003.683450	-485.646558	187.534979	958.410937	-487.305861	212.479797	981.728017	-475.737612	230.435045	880.548494	-493.881210	308.704472	744.472410	-473.692551	336.006905	715.793067	-365.273010	247.699402	640.041888	-491.593972	209.376357	566.853082	-464.310034	136.146702	516.818284	-458.772824	232.524576	552.782449	-435.801458	36.967199	410.109048	-446.225350	37.301080	413.129503	-357.753220	-38.331172	436.551036	-401.313074	190.390457	235.199255	-415.637465	110.511291	253.376171	-473.480536	-185.437959	933.443801	-287.327865	-17.426109	78.952290	-485.522689	-17.463862	79.195636	-84.872425	
1002	5.0100	492.246830	1338.848973	-127.207787	503.173771	1330.905935	-394.095738	478.780063	1398.455149	-267.179168	418.998164	1250.764223	-274.682363	443.773102	1049.818378	6.650602	683.860586	920.383814	-105.826305	462.543439	1083.816917	-554.765173	683.720987	910.616236	-492.479660	-74.760240	1162.351728	-303.493664	89.757811	1176.336530	-452.273970	61.882264	1187.787890	-131.609810	129.154527	1131.310542	-403.647082	93.362290	1165.361497	-125.842315	-55.771149	1210.525868	-260.376897	-46.695299	1210.147760	-338.079573	30.505753	1126.355472	-112.697431	54.611257	1073.818125	-476.458228	165.447879	1029.887466	-105.981798	247.997526	1001.082739	-120.661675	305.629046	939.106936	-128.246542	265.357284	1031.718188	-134.254441	411.463732	848.019074	-155.427084	389.752548	822.552858	-266.720325	364.773985	733.466494	-126.577239	358.682531	642.458782	-136.088428	307.587349	573.079156	-137.569185	389.784780	634.722053	-158.345513	268.349483	426.034570	-134.987800	287.228496	434.411068	-220.755842	199.604593	385.873518	-170.956339	499.286838	399.104092	-163.884142	436.039512	368.794416	-107.203465	114.761404	1003.350068	-485.806619	189.384118	959.230350	-487.810985	214.051560	982.807672	-476.370372	233.386125	882.006838	-494.765069	314.360034	748.352911	-473.846729	341.672951	719.724987	-365.584466	251.843122	645.782059	-491.697320	212.144478	573.417264	-464.152678	137.813381	525.041336	-458.634528	235.045682	558.945344	-435.797422	36.681064	420.690424	-445.940459	37.624584	423.586005	-357.404696	-38.221008	448.318136	-400.815263	187.668113	244.119654	-415.705152	108.070320	263.423658	-473.478030	-185.489223	933.337700	-287.188892	-17.431240	78.936529	-485.521356	-17.464514	79.188832	-84.870485	
1003	5.0150	492.280095	1339.069771	-127.284864	503.015617	1331.188824	-395.235929	477.783941	1398.821327	-267.012939	419.808080	1250.415599	-274.775447	445.326472	1050.204665	7.386442	684.282215	920.183613	-106.084611	462.816828	1083.581149	-554.797121	683.770701	910.727710	-492.576339	-75.979744	1160.650892	-303.571012	89.419094	1175.511659	-451.742618	62.174932	1185.947668	-130.719826	129.218952	1130.834585	-402.944114	93.793116	1164.341137	-125.362086	-56.165754	1207.862430	-259.353587	-49.958768	1208.984893	-333.401787	30.843639	1122.387898	-113.338652	55.333820	1072.479698	-475.992995	164.466172	1025.715638	-105.227932	246.577426	995.914438	-120.068295	303.385386	933.081328	-127.831907	264.345913	1026.455954	-133.234311	408.486320	840.220981	-155.553454	390.109276	815.506048	-266.663714	363.115070	725.162233	-125.677038	357.717680	634.154985	-135.227526	307.466374	564.234086	-136.531110	388.295563	626.473181	-157.583615	270.633034	415.775332	-134.246235	289.317545	424.323058	-219.820146	201.823847	376.149273	-169.777209	501.749439	388.013495	-164.366358	438.596034	357.956732	-107.321240	115.859991	1003.091282	-486.078334	191.069194	959.969730	-488.265824	215.436244	983.859194	-476.768275	236.213648	883.551745	-495.647770	319.842597	752.556092	-474.011174	347.152031	723.901933	-365.743459	256.054743	651.814102	-491.861512	215.052986	580.309924	-464.310519	139.679132	533.292108	-458.570558	237.540872	565.924637	-435.268737	36.718384	431.319351	-445.756001	37.950110	434.375909	-357.304868	-37.968709	460.099246	-400.804904	185.492329	253.486538	-415.749539	106.171287	273.508825	-473.532596	-185.551856	933.278591	-287.158132	-17.446499	78.935788	-485.513235	-17.479519	79.191323	-84.866741	
1004	5.0200	492.422289	1339.305083	-127.391114	501.907793	1330.743023	-394.654506	476.758469	1399.329523	-266.842782	419.386465	1250.680502	-274.624660	446.589037	1050.712799	8.189517	684.397218	919.971446	-105.860194	463.016858	1083.562289	-555.355157	683.663868	910.929622	-492.636684	-76.132476	1158.923755	-302.827395	88.991931	1175.146398	-451.191416	62.318944	1184.772647	-130.004903	129.259414	1130.884119	-402.505382	94.213036	1163.540303	-124.878440	-56.051923	1206.488409	-258.753245	-50.205875	1206.169351	-333.260354	30.943214	1119.811770	-113.354029	56.165199	1071.418255	-475.527265	163.502766	1022.395568	-104.519989	245.121393	991.417075	-118.848159	301.130729	928.086045	-127.164670	262.963497	1021.343738	-132.866470	405.583148	833.439593	-154.494944	386.637999	807.975597	-265.856764	361.416347	716.844330	-124.525966	356.908466	625.763630	-134.214532	307.280419	555.584157	-135.370267	388.472782	618.653242	-156.424866	272.672884	406.058678	-133.803859	290.587107	413.836256	-219.626807	203.744044	366.956768	-168.726829	503.835461	376.372605	-164.900169	440.672968	346.946116	-107.524848	116.923791	1003.082217	-486.348096	192.748655	961.093495	-488.843697	216.780687	985.251230	-477.316386	238.963707	885.339587	-496.327671	325.149762	757.405827	-474.240717	352.029244	729.272453	-365.829790	260.161042	658.175703	-492.182867	217.872813	587.477813	-464.419814	141.724792	541.794617	-458.785763	240.123030	572.859399	-435.282160	36.988773	441.797423	-445.855709	38.483935	445.260523	-357.358735	-37.563568	471.737300	-401.046964	184.070258	263.343275	-415.849026	104.896018	284.012992	-473.716483	-185.600471	933.277160	-287.094612	-17.460094	78.920736	-485.521983	-17.496658	79.182570	-84.875063	
